<?xml version="1.0" encoding="UTF-8"?>
<!DOCTYPE svg PUBLIC "-//W3C//DTD SVG 1.1//EN" "http://www.w3.org/Graphics/SVG/1.1/DTD/svg11.dtd">
<!-- Creator: CorelDRAW X7 -->
<svg xmlns="http://www.w3.org/2000/svg" xml:space="preserve" width="8.5in" height="11in" version="1.1" style="shape-rendering:geometricPrecision; text-rendering:geometricPrecision; image-rendering:optimizeQuality; fill-rule:evenodd; clip-rule:evenodd"
viewBox="0 0 8500 11000"
 xmlns:xlink="http://www.w3.org/1999/xlink"
 data-name="Layer 1">
 <defs>
  <style type="text/css">
   <![CDATA[
    .fil7 {fill:#2F2E41}
    .fil9 {fill:#359991}
    .fil5 {fill:#3F3D56}
    .fil3 {fill:#48B0A7}
    .fil6 {fill:#4FB0A8}
    .fil4 {fill:#5BCFC5}
    .fil2 {fill:#CCCCCC}
    .fil0 {fill:#E6E6E6}
    .fil8 {fill:#FFB8B8}
    .fil1 {fill:white}
    .fil10 {fill:black;fill-opacity:0.200000}
   ]]>
  </style>
 </defs>
 <g id="Layer_x0020_1">
  <metadata id="CorelCorpID_0Corel-Layer"/>
  <g id="_2766784223088">
   <g id="_2766716453264">
    <path class="fil0" d="M3457 865l26 -39c-8,-21 -17,-41 -27,-61l-16 13 13 -20c-12,-24 -22,-40 -22,-40 0,0 -51,81 -68,166l32 50 -36 -29c-1,10 -2,20 -2,30 0,101 33,183 74,183 40,0 73,-82 73,-183 0,-32 -6,-64 -16,-94l-31 24z"/>
    <path class="fil0" d="M3637 953l46 -10c10,-20 18,-41 25,-62l-21 -2 23 -5c9,-26 13,-44 13,-44 0,0 -93,21 -165,69l-13 59 -5 -46c-8,6 -15,13 -23,20 -71,71 -106,152 -77,181 29,29 110,-6 182,-77 22,-23 40,-50 54,-79l-39 -4z"/>
    <path class="fil0" d="M3654 1344c-106,7 -222,-1 -345,0l0 -283c108,17 224,16 345,0l0 283z"/>
    <path class="fil0" d="M4415 1564l17 -26c-5,-13 -11,-27 -17,-40l-11 9 8 -13c-8,-16 -14,-26 -14,-26 -21,33 -36,70 -45,108l22 33 -24 -19c-1,6 -1,13 -1,19 0,66 21,119 48,119 26,0 48,-53 48,-119 -1,-21 -4,-41 -11,-61l-20 16z"/>
    <path class="fil0" d="M4533 1621l29 -7c7,-13 12,-26 17,-40l-14 -1 15 -4c6,-17 8,-28 8,-28 -38,9 -74,24 -108,45l-8 38 -3 -30c-5,4 -10,8 -15,13 -46,46 -69,99 -50,118 19,19 72,-4 118,-50 15,-15 27,-33 36,-51l-25 -3z"/>
    <path class="fil0" d="M4544 1876c-70,4 -145,-1 -226,0l0 -184c38,5 75,7 113,7 38,0 75,-2 112,-7l1 184z"/>
    <path class="fil0" d="M4501 2421c-62,4 -128,0 -199,0l0 -162c33,4 66,7 99,7 33,0 67,-3 100,-7l0 162z"/>
    <rect class="fil0" x="2173" y="1324" width="2677.09" height="74.7795"/>
    <rect class="fil0" x="2173" y="1855" width="2677.09" height="74.7795"/>
    <rect class="fil0" x="2173" y="2386" width="2677.09" height="74.7795"/>
    <circle class="fil0" cx="4401" cy="2169" r="150"/>
    <circle class="fil1" cx="4401" cy="2169" r="120"/>
    <circle class="fil0" cx="4401" cy="2169" r="30"/>
    <rect class="fil0" transform="matrix(1.86712E-014 0.704986 -0.704986 1.86712E-014 4506.3 2161.35)" width="21.2126" height="169.717"/>
    <rect class="fil0" x="4394" y="2064" width="14.9528" height="119.65"/>
    <rect class="fil0" x="3438" y="1490" width="98.9567" height="391.701"/>
    <rect class="fil2" x="3438" y="1552" width="98.9567" height="45.3543"/>
    <rect class="fil2" x="3438" y="1750" width="98.9567" height="45.3543"/>
    <rect class="fil0" x="3285" y="1490" width="98.9567" height="391.701"/>
    <rect class="fil2" x="3285" y="1552" width="98.9567" height="45.3543"/>
    <rect class="fil2" x="3285" y="1750" width="98.9567" height="45.3543"/>
    <rect class="fil0" transform="matrix(0.631794 -0.312796 0.312796 0.631794 3533.43 1532.25)" width="140" height="556"/>
    <rect class="fil2" transform="matrix(0.631794 -0.312796 0.312796 0.631794 3560.87 1587.67)" width="140.366" height="64.3346"/>
    <rect class="fil2" transform="matrix(0.631794 -0.312796 0.312796 0.631794 3648.68 1765.04)" width="140.366" height="64.3346"/>
    <rect class="fil0" x="2555" y="2021" width="98.9567" height="391.701"/>
    <rect class="fil2" x="2555" y="2083" width="98.9567" height="45.3543"/>
    <rect class="fil2" x="2555" y="2281" width="98.9567" height="45.3543"/>
    <rect class="fil0" x="2403" y="2021" width="98.9567" height="391.701"/>
    <rect class="fil2" x="2403" y="2083" width="98.9567" height="45.3543"/>
    <rect class="fil2" x="2403" y="2281" width="98.9567" height="45.3543"/>
    <rect class="fil0" transform="matrix(0.631794 -0.312796 0.312796 0.631794 2651.03 2063.18)" width="140" height="556"/>
    <rect class="fil2" transform="matrix(0.631794 -0.312796 0.312796 0.631794 2678.47 2118.6)" width="140.366" height="64.3346"/>
    <rect class="fil2" transform="matrix(0.631794 -0.312796 0.312796 0.631794 2766.28 2295.97)" width="140.366" height="64.3346"/>
    <rect class="fil0" x="3483" y="2021" width="98.9567" height="391.701"/>
    <rect class="fil2" x="3483" y="2083" width="98.9567" height="45.3543"/>
    <rect class="fil2" x="3483" y="2281" width="98.9567" height="45.3543"/>
    <rect class="fil0" x="3330" y="2021" width="98.9567" height="391.701"/>
    <rect class="fil2" x="3330" y="2083" width="98.9567" height="45.3543"/>
    <rect class="fil2" x="3330" y="2281" width="98.9567" height="45.3543"/>
    <rect class="fil0" transform="matrix(0.631794 -0.312796 0.312796 0.631794 3578.29 2063.18)" width="140" height="556"/>
    <rect class="fil2" transform="matrix(0.631794 -0.312796 0.312796 0.631794 3605.73 2118.6)" width="140.366" height="64.3346"/>
    <rect class="fil2" transform="matrix(0.631794 -0.312796 0.312796 0.631794 3693.54 2295.97)" width="140.366" height="64.3346"/>
    <rect class="fil0" x="4247" y="958" width="393" height="393"/>
    <rect class="fil2" x="4326" y="1037" width="236" height="236"/>
    <polygon class="fil0" points="4394,1116 4444,1202 4494,1289 4394,1289 4294,1289 4344,1202 "/>
    <polygon class="fil0" points="4481,1132 4531,1219 4581,1306 4481,1306 4381,1306 4431,1219 "/>
    <circle class="fil0" cx="4517" cy="1078" r="29"/>
    <rect class="fil0" x="2258" y="958" width="393" height="393"/>
    <rect class="fil2" x="2337" y="1037" width="236" height="236"/>
    <polygon class="fil0" points="2405,1116 2455,1202 2505,1289 2405,1289 2305,1289 2355,1202 "/>
    <polygon class="fil0" points="2492,1132 2542,1219 2592,1306 2492,1306 2392,1306 2442,1219 "/>
    <circle class="fil0" cx="2527" cy="1078" r="29"/>
    <path class="fil3" d="M1468 3640l25 -40c-7,-20 -16,-41 -26,-61l-16 14 13 -21c-13,-24 -22,-40 -22,-40 0,0 -51,81 -69,166l33 51 -36 -29c-1,9 -2,19 -2,29 0,101 33,183 74,183 40,0 73,-82 73,-183 0,-32 -6,-63 -17,-94l-30 25z"/>
    <path class="fil4" d="M1648 3727l46 -10c10,-20 18,-40 25,-61l-21 -2 23 -6c9,-26 13,-43 13,-43 0,0 -93,20 -166,69l-12 58 -5 -46c-8,6 -16,13 -23,20 -71,71 -106,153 -77,181 29,29 110,-6 181,-77 23,-23 41,-50 55,-79l-39 -4z"/>
    <path class="fil5" d="M1665 4118c-106,7 -222,0 -345,0l0 -282c108,17 224,15 345,0l0 282z"/>
    <rect class="fil0" x="4622" y="4207" width="1436" height="1862"/>
    <rect class="fil0" x="1623" y="4304" width="74.7795" height="1764.78"/>
    <rect class="fil0" x="943" y="4079" width="5115" height="150"/>
    <rect class="fil0" x="1586" y="4229" width="150" height="150"/>
    <polygon class="fil5" points="5453,4315 5445,4349 5235,4349 5223,4315 4689,4315 4689,4659 5990,4659 5990,4315 "/>
    <polygon class="fil5" points="5453,4749 5445,4782 5235,4782 5223,4749 4689,4749 4689,5093 5990,5093 5990,4749 "/>
    <polygon class="fil5" points="5453,5182 5445,5216 5235,5216 5223,5182 4689,5182 4689,5526 5990,5526 5990,5182 "/>
    <polygon class="fil5" points="5453,5616 5445,5650 5235,5650 5223,5616 4689,5616 4689,5960 5990,5960 5990,5616 "/>
    <polygon class="fil0" points="3717,4057 3276,4057 3291,3863 3702,3863 "/>
    <rect class="fil0" x="3254" y="4035" width="493.543" height="44.8661"/>
    <path class="fil5" d="M4342 2610l-1687 0c-24,0 -45,20 -45,45l0 1028 1776 0 0 -1028c0,-25 -20,-45 -44,-45l0 0z"/>
    <path class="fil0" d="M2610 3683l0 168c0,25 21,45 45,45l1687 0c24,0 44,-20 44,-45l0 -168 -1776 0z"/>
    <rect class="fil1" x="2700" y="2704" width="1600" height="897"/>
    <circle class="fil5" cx="3500" cy="3788" r="45"/>
    <path class="fil5" d="M7295 6057c-163,11 -341,0 -531,0l0 -433c167,26 345,23 531,0l0 433z"/>
    <polygon class="fil5" points="7049,5663 7004,5663 7019,4786 7034,4786 "/>
    <polygon class="fil5" points="7251,5669 7206,5669 7221,4792 7236,4792 "/>
    <polygon class="fil5" points="6869,5669 6824,5669 6839,4792 6854,4792 "/>
    <path class="fil0" d="M7086 4225l72 -112c-21,-59 -46,-117 -74,-174l-47 38 37 -57c-35,-70 -63,-113 -63,-113 0,0 -145,228 -194,471l93 143 -103 -83c-3,29 -5,57 -5,85 0,288 94,520 209,520 116,0 210,-232 210,-520 0,-89 -21,-182 -48,-268l-87 70z"/>
    <path class="fil4" d="M7288 4240l72 -112c-21,-59 -46,-117 -74,-174l-47 38 37 -57c-35,-70 -63,-113 -63,-113 0,0 -145,228 -194,471l93 143 -103 -83c-3,28 -5,57 -5,85 0,287 93,520 209,520 116,0 210,-233 210,-520 0,-89 -21,-182 -48,-268l-87 70z"/>
    <path class="fil6" d="M6907 4240l72 -112c-21,-59 -47,-117 -74,-174l-47 38 37 -57c-35,-70 -63,-113 -63,-113 0,0 -146,228 -194,471l93 143 -103 -83c-4,28 -6,57 -6,85 0,287 94,520 210,520 115,0 209,-233 209,-520 0,-89 -20,-182 -48,-268l-86 70z"/>
    <rect class="fil5" x="3219" y="2957" width="431.48" height="24.7677"/>
    <rect class="fil4" x="3219" y="3047" width="666.303" height="24.7677"/>
    <rect class="fil4" x="3219" y="3132" width="543.024" height="24.7677"/>
    <rect class="fil5" x="3219" y="3217" width="317.008" height="24.7677"/>
    <rect class="fil5" x="3219" y="3302" width="478.449" height="24.7677"/>
    <rect class="fil5" x="3023" y="2948" width="52.8346" height="52.8346"/>
    <rect class="fil4" x="3023" y="3033" width="52.8346" height="52.8346"/>
    <rect class="fil4" x="3023" y="3118" width="52.8346" height="52.8346"/>
    <rect class="fil5" x="3023" y="3203" width="52.8346" height="52.8346"/>
    <rect class="fil5" x="3023" y="3289" width="52.8346" height="52.8346"/>
    <path class="fil4" d="M4226 2910l-226 0c-8,-45 -12,-90 -12,-135 0,-45 4,-91 12,-135l226 0c-12,44 -19,89 -19,135 0,46 7,91 19,135l0 0z"/>
    <path class="fil7" d="M2579 3451l-93 -23c0,0 -1,0 -1,0 -132,0 -239,-107 -239,-239 0,-16 1,-32 4,-48l0 0c0,0 0,0 0,0 0,-173 140,-314 313,-314l0 0c0,0 1,0 1,0 173,0 313,140 313,313l0 0c53,184 -112,356 -298,311z"/>
    <circle class="fil8" cx="2681" cy="3253" r="230"/>
    <path class="fil8" d="M2530 3374c0,0 -70,240 -110,260 -40,20 321,50 321,50 0,0 -10,-230 10,-250 20,-20 -221,-60 -221,-60z"/>
    <path class="fil7" d="M2891 4856c0,0 450,-40 511,110 60,150 -40,1041 -40,1041l-191 0 0 -731c0,0 -811,-230 -811,-310 0,-81 531,-110 531,-110z"/>
    <path class="fil7" d="M3331 5967l101 40c0,0 120,-10 70,80 -29,53 -81,90 -140,101 -60,10 -191,70 -201,0 -10,-70 50,-211 50,-211l120 -10z"/>
    <path class="fil7" d="M2640 4856c0,0 451,-40 511,110 60,150 -40,1041 -40,1041l-190 0 0 -731c0,0 -576,-133 -576,-213 0,-38 -39,-229 30,-269 78,-46 265,62 265,62z"/>
    <path class="fil7" d="M3081 5967l100 40c0,0 120,-10 70,80 -29,53 -80,90 -140,101 -59,10 -190,70 -200,0 -10,-70 50,-211 50,-211l120 -10z"/>
    <path class="fil6" d="M2430 3604l301 33c95,10 173,80 193,174l117 554c0,0 40,551 -40,581 -80,30 -190,-120 -340,-100 -151,20 -346,65 -346,65 0,0 -31,-986 -35,-1067 -8,-161 150,-240 150,-240z"/>
    <path class="fil8" d="M3143 4884l124 73c0,0 221,-32 214,46 -7,78 -249,63 -249,63l-148 -92 59 -90z"/>
    <circle class="fil7" cx="2233" cy="2917" r="149"/>
    <path class="fil7" d="M2371 2837c20,-9 41,-14 63,-14 82,0 149,67 149,149 0,71 -50,132 -119,146 52,-25 85,-77 85,-135 0,-82 -67,-149 -149,-149 -10,0 -19,1 -29,3l0 0z"/>
    <path class="fil7" d="M2498 2922l201 -37 154 97c68,42 110,117 110,198 0,10 -1,20 -2,30l-154 -39 -35 -87 -41 68 -216 277 -121 -77 -107 -169 211 -261z"/>
    <path class="fil9" d="M2664 3689l100 -50c0,0 210,30 250,170 40,141 220,1112 220,1112l-170 80 -240 -591 -160 -721z"/>
    <polygon class="fil10" points="2749,4083 2849,4472 3027,4909 3021,4924 2809,4480 "/>
    <polygon class="fil5" points="2001,6229 1966,6216 2308,5199 2358,5217 "/>
    <polygon class="fil5" points="3310,6229 3345,6216 3003,5199 2953,5217 "/>
    <polygon class="fil5" points="2586,6439 2624,6439 2635,5250 2583,5250 "/>
    <path class="fil4" d="M1914 4602l103 414c29,119 122,211 240,241l0 0c138,34 281,52 424,52 151,0 301,-20 446,-58l153 -40c89,-24 156,-100 163,-192 0,-5 0,-10 0,-15 0,-27 -6,-55 -17,-80 -1,-1 -2,-2 -2,-3 -41,-84 -125,-138 -218,-141l-162 -5 -591 -262c0,0 -203,-103 -370,-115 -110,-7 -195,97 -169,204z"/>
    <rect class="fil0" x="4932" y="3298" width="583" height="793"/>
    <rect class="fil1" x="5000" y="3389" width="449" height="610"/>
    <rect class="fil5" x="5176" y="3549" width="217.386" height="24.7677"/>
    <rect class="fil5" x="5054" y="3535" width="52.8346" height="52.8346"/>
    <rect class="fil5" x="5176" y="3654" width="217.386" height="24.7677"/>
    <rect class="fil5" x="5054" y="3640" width="52.8346" height="52.8346"/>
    <rect class="fil5" x="5176" y="3758" width="217.386" height="24.7677"/>
    <rect class="fil5" x="5054" y="3745" width="52.8346" height="52.8346"/>
    <path class="fil5" d="M5224 3320l0 0c12,0 22,11 22,23l0 0c0,12 -10,22 -22,22l0 0c-12,0 -22,-10 -22,-22l0 0c0,-12 10,-23 22,-23z"/>
   </g>
  </g>
 </g>
</svg>
