<?xml version="1.0" standalone="no"?>
<!DOCTYPE svg PUBLIC "-//W3C//DTD SVG 20010904//EN"
 "http://www.w3.org/TR/2001/REC-SVG-20010904/DTD/svg10.dtd">
<svg version="1.0" xmlns="http://www.w3.org/2000/svg"
 width="1848.000000pt" height="1491.000000pt" viewBox="0 0 1848.000000 1491.000000"
 preserveAspectRatio="xMidYMid meet">

<g transform="translate(0.000000,1491.000000) scale(0.100000,-0.100000)"
fill="#000000" stroke="none">
<path d="M12589 13174 c13 -17 21 -41 21 -65 0 -51 -40 -96 -145 -164 -124
-80 -157 -127 -157 -226 0 -102 54 -192 156 -259 l63 -41 -15 -67 c-21 -93
-23 -363 -2 -412 14 -34 15 -33 26 97 17 180 43 237 116 252 17 4 34 13 36 20
3 10 -6 12 -37 9 -22 -2 -41 -3 -41 -2 0 0 5 15 10 31 l11 30 112 6 c62 4 166
18 232 32 140 30 225 36 249 16 30 -25 20 -100 -35 -264 -59 -176 -73 -279
-45 -322 12 -19 24 -25 42 -23 20 2 30 15 49 62 26 64 50 94 109 137 50 37
103 39 154 4 48 -33 57 -22 57 68 1 80 18 118 65 142 41 21 88 80 100 126 19
71 -4 121 -79 171 -65 44 -71 54 -71 124 0 35 -5 75 -10 90 -19 50 -88 120
-150 153 -107 57 -203 51 -302 -20 -21 -15 -77 -39 -125 -55 -72 -24 -105 -29
-179 -28 -50 0 -105 6 -121 13 -64 26 -68 96 -11 185 63 100 81 142 68 166
-15 28 -50 40 -116 40 l-55 0 20 -26z"/>
<path d="M12878 12209 c-30 -17 -20 -27 25 -28 23 0 53 -1 66 -3 40 -5 35 20
-6 31 -47 13 -63 13 -85 0z"/>
<path d="M12622 12128 c-16 -16 -15 -53 2 -67 11 -9 18 -8 30 4 17 17 20 34
10 59 -7 19 -25 21 -42 4z"/>
<path d="M12897 12122 c-21 -23 -21 -33 -3 -57 12 -16 16 -17 30 -6 19 16 21
54 3 70 -11 8 -18 7 -30 -7z"/>
<path d="M12718 12004 c-15 -27 -38 -64 -52 -83 -32 -44 -32 -49 1 -62 62 -23
87 18 81 135 l-3 60 -27 -50z"/>
<path d="M4162 10774 c-159 -40 -244 -104 -258 -195 -5 -31 -11 -39 -33 -44
-38 -8 -80 -50 -103 -103 -26 -58 -27 -185 -2 -377 10 -77 18 -205 18 -285 1
-149 -9 -212 -46 -299 -11 -27 -15 -48 -9 -54 36 -36 674 -62 918 -37 143 14
253 37 253 53 0 7 -14 41 -31 77 -44 92 -86 226 -95 300 -4 39 -18 85 -35 118
-24 45 -29 66 -29 128 0 89 19 118 70 108 l30 -6 0 65 c0 71 -2 68 68 82 31 6
32 8 32 58 l0 51 46 -44 c32 -31 45 -39 41 -25 -28 105 -42 141 -78 195 -99
148 -254 222 -503 240 -78 6 -145 12 -151 14 -5 1 -52 -8 -103 -20z"/>
<path d="M12201 9139 c-19 -15 -25 -32 -28 -73 -4 -48 -1 -56 22 -74 14 -11
33 -41 41 -66 15 -43 17 -45 47 -39 41 8 47 18 35 61 -5 19 -7 59 -3 89 4 31
3 53 -3 53 -5 0 -27 16 -48 35 -21 19 -38 35 -38 35 -1 -1 -12 -10 -25 -21z"/>
<path d="M3205 6129 c-88 -8 -129 -25 -169 -69 -55 -61 -59 -92 -52 -378 l6
-253 29 -43 c30 -44 100 -86 141 -86 17 0 20 -7 20 -47 0 -62 17 -94 60 -115
32 -17 85 -18 660 -18 575 0 628 1 660 18 43 21 60 53 60 115 0 44 2 47 27 47
30 0 124 67 150 107 16 24 18 59 21 275 4 283 -4 336 -62 394 -57 57 -76 58
-821 59 -368 0 -697 -3 -730 -6z"/>
<path d="M3744 2200 c-12 -5 -29 -29 -41 -62 -12 -29 -37 -90 -57 -134 -47
-106 -42 -124 41 -147 98 -28 93 -33 95 101 5 241 3 258 -38 242z"/>
<path d="M4273 2150 c-34 -34 -60 -50 -77 -50 -30 0 -31 3 -11 34 21 31 10 56
-26 56 -29 0 -59 -30 -59 -61 0 -14 -6 -16 -34 -9 -19 4 -37 5 -40 2 -4 -3 -6
-69 -6 -148 l0 -142 198 -4 c253 -4 272 -12 289 -126 8 -49 10 -51 103 -121
163 -121 227 -147 273 -111 15 12 27 31 27 44 0 13 -30 61 -70 112 -64 80
-157 241 -146 251 2 3 13 0 24 -6 29 -15 67 -14 82 4 18 22 6 42 -36 55 l-38
13 30 23 c24 20 27 27 18 41 -16 26 -59 28 -94 3 l-29 -21 -108 72 c-59 40
-124 84 -143 99 -59 46 -69 45 -127 -10z m-93 12 c0 -10 -20 -34 -42 -50 -25
-20 -30 2 -7 32 19 25 49 35 49 18z m588 -164 c-7 -20 -85 -45 -99 -31 -8 8
-4 15 17 27 36 19 87 21 82 4z m0 -84 c54 -35 0 -51 -57 -17 -23 13 -41 29
-41 35 0 14 68 1 98 -18z"/>
<path d="M13018 910 c-86 -27 -169 -57 -184 -66 -27 -18 -27 -18 -43 6 -28 42
-50 60 -76 60 -22 0 -25 -4 -25 -35 0 -19 5 -35 10 -35 6 0 10 -4 10 -10 0 -5
-15 -10 -34 -10 -19 0 -37 -3 -39 -7 -3 -5 24 -6 59 -5 42 3 64 0 64 -7 0 -26
-96 -41 -118 -19 -9 9 -12 8 -12 -6 0 -15 8 -17 56 -14 l56 3 -36 -31 c-41
-36 -203 -127 -261 -147 -22 -8 -74 -18 -115 -22 -80 -8 -90 -14 -90 -57 0
-19 10 -35 37 -55 36 -28 39 -28 167 -27 153 1 202 10 351 65 61 23 205 68
320 100 116 33 216 66 224 74 12 11 10 23 -12 77 -14 35 -43 97 -64 138 -31
61 -43 75 -63 77 -14 1 -96 -20 -182 -47z m-248 -52 c17 -28 18 -34 5 -36 -20
-4 -75 35 -75 54 0 8 10 14 25 14 18 0 31 -10 45 -32z"/>
<path d="M13782 815 c4 -35 4 -35 -34 -35 -34 0 -38 -3 -38 -26 0 -19 7 -28
30 -35 17 -6 30 -15 30 -19 0 -15 -174 -98 -240 -115 -110 -29 -130 -40 -130
-74 0 -17 10 -42 24 -58 l24 -28 408 0 408 0 12 23 c8 17 6 52 -12 160 -13 75
-24 140 -24 145 0 4 -85 7 -189 7 l-189 0 -10 28 -10 27 -1 -27 c-1 -34 -14
-36 -35 -6 -30 43 -12 77 24 46 12 -11 12 -10 1 5 -7 9 -22 17 -33 17 -17 0
-20 -5 -16 -35z m2 -55 c33 -12 33 -28 2 -36 -29 -7 -66 11 -66 31 0 17 27 19
64 5z"/>
</g>
</svg>
