<?xml version="1.0" encoding="UTF-8"?>
<!DOCTYPE svg PUBLIC "-//W3C//DTD SVG 1.1//EN" "http://www.w3.org/Graphics/SVG/1.1/DTD/svg11.dtd">
<!-- Creator: CorelDRAW X7 -->
<svg xmlns="http://www.w3.org/2000/svg" xml:space="preserve" width="8.5in" height="11in" version="1.1" style="shape-rendering:geometricPrecision; text-rendering:geometricPrecision; image-rendering:optimizeQuality; fill-rule:evenodd; clip-rule:evenodd"
viewBox="0 0 8500 11000"
 xmlns:xlink="http://www.w3.org/1999/xlink">
 <defs>
  <style type="text/css">
   <![CDATA[
    .fil9 {fill:#07485B}
    .fil17 {fill:#1657AB}
    .fil20 {fill:#185DB8}
    .fil2 {fill:#2C4481}
    .fil5 {fill:#2C4483}
    .fil12 {fill:#45A8A0}
    .fil1 {fill:#4A72DA}
    .fil15 {fill:#53B1FA}
    .fil0 {fill:#5BCFC5}
    .fil11 {fill:#C5D9FE}
    .fil14 {fill:#ECF2FE}
    .fil21 {fill:#F4F7FD}
    .fil6 {fill:#F7FAFF}
    .fil8 {fill:#FAFBFE}
    .fil19 {fill:#FBA589}
    .fil18 {fill:#FBFBFE}
    .fil16 {fill:#FDA086}
    .fil10 {fill:#FDBB47}
    .fil7 {fill:#FDBC47}
    .fil4 {fill:#FDFDFD}
    .fil13 {fill:#FDFEFF}
    .fil3 {fill:#FE7E33}
   ]]>
  </style>
 </defs>
 <g id="Layer_x0020_1">
  <metadata id="CorelCorpID_0Corel-Layer"/>
  <g id="_2802737521568">
   <path class="fil0" d="M1423 2016l23 112 59 295 19 92 60 305c-18,4 -28,11 -48,12 -18,-21 -36,-70 -51,-95l-60 -86c-15,-18 -34,-36 -55,-50 -15,-9 -49,-29 -71,-33 -11,-2 -10,1 -19,-8 -10,-4 -62,-21 -72,-19 -13,2 -5,-2 -14,6 11,9 10,9 32,13 34,8 66,21 96,36 164,80 214,278 271,437 23,63 25,79 101,81 32,1 233,3 259,-1 32,-5 52,0 77,3 28,-5 133,-25 152,9 19,32 -41,10 -96,48 -21,15 -57,56 -70,62l1 -26c-13,10 -18,11 -35,18 -79,29 -221,57 -303,57l36 177 168 0 3 1 91 -1 241 0 98 1c4,0 12,0 16,0l16 -4 -219 3 235 -940c18,63 113,411 108,442 13,7 31,101 35,120 24,97 72,296 96,377l595 2c12,0 29,2 39,-4l-220 0 298 -1499 -390 0c-10,2 -9,6 -12,32l-48 269c-3,9 0,4 -4,9 4,26 -34,220 -41,261l-47 259 -208 -831 -393 1c-11,3 -10,11 -15,33 -11,48 -63,264 -72,276 0,31 -116,470 -127,521 -1,-1 -1,-2 -2,-3l-72 -413c-17,-100 -62,-330 -71,-414l-125 0 -275 0 10 57z"/>
   <path class="fil0" d="M4573 4035c68,21 166,26 273,69 100,39 77,129 122,219l2 -322 200 859c8,35 2,30 32,42 17,7 40,14 50,29 19,4 33,18 44,34 11,17 13,42 8,66 -9,48 -34,75 -55,105 54,-10 202,-2 266,-2 44,0 88,1 133,1 19,0 115,9 120,-7 -16,8 -190,6 -221,2l262 -1129c6,88 1,367 1,475 0,72 5,440 -2,477 6,17 2,151 2,181l345 0 0 -1502 -546 0c-14,4 -29,97 -31,107 -7,30 -67,310 -80,325 3,17 -96,451 -107,474l-212 -906 -499 0c18,43 13,46 -5,91 -28,72 -23,67 -58,117 -8,11 -11,30 -14,45 -3,17 -5,35 -4,52 4,41 34,42 -19,76l-13 11c4,18 -1,6 6,11z"/>
   <path class="fil0" d="M3874 2825l217 0 1 295 -218 -2 0 -293zm0 -545l217 0 1 113 0 31 0 24 -1 70 -203 0 -15 -1 1 -237zm-427 120c0,1 1,1 1,3l2 6c7,40 -5,1010 2,1052l1367 0 2 -323c0,-4 0,-6 -2,-11 -3,-12 4,1 -4,-8 5,27 2,291 2,339l-219 0c0,-50 -3,-312 3,-339l-506 0 0 -294c75,0 633,6 653,-1l-221 0 1 -306 -434 0 1 -238 483 0 0 -322 -1127 1c0,74 0,149 0,223 0,62 6,163 -4,218z"/>
   <path class="fil0" d="M7789 5131l-220 1c0,-60 -7,-300 3,-339l-508 0 -220 0 0 -294 221 1 654 -1c3,-35 5,-291 -3,-308l1 307 -83 0 -285 -3c-1,-47 4,-99 15,-142l39 -162 -339 0 -220 0 0 -237 220 0 398 1c11,-53 28,-111 41,-162 8,-27 14,-53 23,-79 9,-29 23,-50 23,-81l-265 -2c-51,8 -104,22 -158,30 -134,18 -293,20 -425,-12 -28,-6 -43,-15 -66,-23 -15,13 -12,5 -12,5l-202 1 2 1501c51,4 116,1 169,1l1030 1c17,0 153,5 167,-4z"/>
   <path class="fil0" d="M2073 3615c-12,5 -20,6 -30,-2 -9,11 -1,8 -20,13 -8,2 -19,3 -29,6 -56,15 -94,30 -145,57 -30,16 -58,35 -83,54 -28,23 -64,62 -70,66 -3,7 -43,54 -59,82 -60,103 -92,200 -107,326 -31,260 -1,496 145,702 10,15 19,26 31,39 45,52 49,58 115,104 118,82 314,106 481,97 10,-4 91,-13 113,-18 170,-39 289,-147 363,-300 22,-45 60,-146 65,-200l-361 -122c-12,8 -1,-3 -7,7 -2,2 -3,7 -4,12 -18,76 -40,146 -93,207 -10,11 -44,42 -66,41 -4,6 0,2 -7,6 -5,3 -2,2 -8,5 -42,16 -116,17 -159,6 -183,-45 -195,-258 -195,-428 0,-126 15,-250 82,-330 28,-33 64,-66 125,-82 43,-11 145,-13 172,18 47,11 99,77 117,126 7,17 15,47 23,59 30,1 206,5 219,-3l-206 -1 355 -87c-8,-49 -49,-135 -70,-175 -148,-285 -409,-270 -444,-291 62,-4 175,4 194,3 -29,-20 -381,-1 -437,3z"/>
   <path class="fil1" d="M630 3426l18 5c-5,-18 7,-32 23,-61 35,-63 64,-130 90,-196 20,-49 47,-82 69,-117 21,-34 58,-80 86,-106 24,31 26,97 31,137 14,111 18,77 -27,136 -218,284 -275,781 -243,1137 9,96 -266,603 -325,719 32,6 79,29 109,40 11,-17 25,-32 38,-50 14,-19 27,-36 40,-53 13,-18 27,-40 40,-53 8,-16 31,-45 42,-60 10,-15 34,-53 45,-59 5,-12 10,-19 18,-30 3,-4 7,-11 10,-14l12 -13c4,-12 173,-254 207,-322 20,-40 35,-86 49,-130 42,-132 72,-285 109,-422 10,-36 27,-111 59,-121 42,42 49,573 51,687 1,63 11,189 2,245 8,11 6,404 5,453l110 1 65 -337c23,-114 40,-231 61,-345 34,-180 83,-534 92,-716 3,-58 6,-118 -2,-176 -3,-75 -36,-152 -56,-214 -24,-45 -38,-77 -65,-117 -18,-26 -68,-85 -92,-96l13 -76c14,-44 13,-120 31,-155 10,6 16,22 24,38 6,12 13,28 18,40 13,29 25,56 36,83 10,8 28,49 37,64 13,23 23,41 41,60 42,44 81,43 153,50l25 2c82,0 224,-28 303,-57 17,-7 22,-8 35,-18l2 -16c-13,9 -25,17 -45,24 -20,7 -25,2 -48,10 -36,11 -73,18 -111,26 -66,14 -175,24 -241,6 -17,-5 -36,-10 -48,-21 -33,-30 -61,-80 -81,-122l-85 -183c-33,-3 -32,4 -36,33l-32 183c-3,21 2,20 -51,37 -81,24 -181,38 -257,-8 -36,-21 -4,-124 -57,-241 -28,-1 -47,26 -62,45l-41 57c-90,123 -74,146 -134,260l-27 65c-7,19 -27,42 -33,62z"/>
   <path class="fil0" d="M3041 4044c2,24 -3,29 -18,37 13,9 7,-2 7,16 0,13 -71,222 -14,520 -6,8 11,9 -12,5 12,8 14,6 18,22 3,10 4,18 7,28 5,18 15,40 13,54 19,17 61,203 249,328 152,100 299,99 468,106 -9,-12 -56,-37 -90,-93 -22,-36 -49,-96 -21,-140 30,-44 60,-58 111,-72 45,-13 109,-26 157,-31 -1,-45 5,-91 11,-135 -8,11 -15,23 -23,33 -9,10 -19,18 -28,27 -12,13 -47,40 -68,39 -7,8 0,2 -10,8l-30 9c-14,2 -30,5 -44,6 -252,16 -309,-211 -308,-428 0,-125 18,-259 86,-336 31,-35 66,-65 129,-81 40,-9 148,-11 174,16 30,5 76,44 89,60 103,123 76,254 90,348 16,-62 58,-238 95,-265 56,-40 197,-63 277,-81 -13,-58 -56,-129 -85,-173 -172,-258 -456,-247 -502,-265 -309,-15 -542,83 -682,339 -16,29 -36,90 -46,99z"/>
   <path class="fil0" d="M4832 1492c-130,10 -185,3 -314,-49 -56,-22 -221,-100 -251,-130 -6,-27 10,-56 28,-65 19,-11 56,4 77,10 55,14 106,25 163,33 129,17 233,-7 317,-69 -22,108 -19,160 -20,270zm-548 -253c-17,29 -26,19 -30,69 5,25 20,27 53,46 64,37 128,71 199,98 118,46 189,67 326,53 6,105 3,226 10,342 2,31 9,84 8,112l-26 0 0 1502 1298 0 1 -34 -2 -1 -2 32 -3 0 -215 0 0 -368 -107 0 -329 -1 -219 1 -1 -1102c-20,5 -37,13 -56,20 -31,10 -33,13 -62,9 -30,14 -78,22 -112,11l-2 -7c-4,-26 -2,21 -1,-6 1,-23 47,-38 77,-58l-224 -2c-19,-106 -19,-415 -20,-537 -1,-108 15,-247 91,-325 14,-14 22,-21 36,-35 20,-20 22,-9 41,-29 -1,-1 1,-10 -23,0 -69,30 -125,160 -129,164 -74,95 -252,97 -364,80 -37,-6 -74,-16 -109,-24 -40,-10 -66,-28 -104,-10z"/>
   <path class="fil2" d="M7698 3136c-84,3 -204,0 -295,0 -103,0 -31,12 -88,11l-140 5c-81,9 -140,25 -213,43 -41,-44 -27,-72 -46,-67 -66,35 -151,20 -214,-19 -9,-5 -18,-12 -27,-19 -11,-8 -14,-14 -24,-10 -7,16 -21,37 -30,52 -11,19 -18,33 -27,51 -18,37 -33,70 -48,110 -17,79 -35,110 -21,201 18,63 57,114 110,132 23,8 38,17 66,23 132,32 291,30 425,12 54,-8 107,-22 158,-30 60,-13 260,-81 316,-113 23,-13 68,-40 90,-46 -14,6 -65,62 -76,76 -32,39 -47,83 -65,85 0,31 -14,52 -23,81 -9,26 -15,52 -23,79 -13,51 -30,109 -41,162l-59 236 -39 162c17,-3 30,-2 47,-2 5,0 20,-1 23,0 14,1 10,-1 16,8 3,-35 44,-69 57,-87 9,-14 17,-26 26,-40l30 -42c7,-18 135,-201 151,-236l55 -1c0,-26 -5,-69 3,-91l101 -172c37,-66 93,-169 116,-251 18,-66 -2,-97 -40,-129 -30,-25 -75,-48 -117,-66 -118,-49 -171,-50 -285,-77 47,-5 278,-2 344,-2 212,0 162,26 236,-107l124 -219c22,-35 40,-75 61,-110 16,-25 59,-89 53,-115 -26,-4 -23,0 -50,51 -13,25 -26,46 -38,68l-153 269c-23,43 -51,95 -77,132l-349 2z"/>
   <path class="fil3" d="M4435 4017l-1 13 -78 14c-80,18 -221,41 -277,81 -37,27 -79,203 -95,265 -19,100 -42,195 -57,299 -6,44 -12,90 -11,135 4,32 13,49 31,62 12,10 39,29 56,38 41,20 95,32 138,53l-103 -296 66 -1c8,-28 23,-64 35,-90 13,-28 26,-67 54,-70 17,21 46,124 54,160l474 -1c7,-34 39,-144 57,-159 19,2 22,14 31,30 19,33 46,95 56,130l65 0 -106 311c50,-18 126,-54 165,-81 74,-50 70,-69 57,-180 -11,-102 -33,-209 -56,-310 -5,-26 -21,-75 -22,-97 -45,-90 -22,-180 -122,-219 -107,-43 -205,-48 -273,-69 -6,0 -73,-5 -77,-6 -26,-7 -24,-23 -61,-12z"/>
   <path class="fil3" d="M6471 2077l15 -12c-11,-64 -58,-174 -85,-238 -10,-22 -28,-52 -35,-73 242,-93 326,-312 300,-559 -10,-90 -32,-157 -54,-237 -40,15 -114,90 -141,117 -88,87 -158,206 -179,335 -16,97 -2,150 13,237 -45,-68 -168,-235 -234,-270 12,-151 -15,-265 -102,-378 -74,-99 -159,-157 -276,-215 -57,-29 -176,-75 -244,-86 14,229 151,481 346,600 49,30 102,52 164,70 97,28 80,-7 162,76 63,63 160,186 200,270 -65,-38 -114,-70 -209,-82 -180,-22 -326,66 -451,170 -8,7 -12,13 -19,19 -15,14 -25,22 -39,36 -18,19 -56,57 -69,80 92,31 98,47 219,66 161,27 328,-2 454,-100 41,-32 91,-82 121,-125l19 -21c19,48 48,99 69,153 19,49 43,114 55,167z"/>
   <path class="fil4" d="M1214 2454l-5 5c-4,9 -10,20 -17,28 -7,8 -13,11 -19,19 -12,20 -6,41 -25,53 -22,14 -39,-6 -45,-22 -9,-20 1,-10 -16,-23 -11,-7 -14,-11 -25,-16l-19 46c1,-1 10,-2 10,-2 14,0 11,0 16,4 -25,16 -31,3 -53,29 -37,45 -99,80 -160,94 -51,11 -27,-4 -57,25 -18,16 -26,27 -40,46 -22,30 -46,70 -66,106 -82,143 -109,220 -118,388l-6 162 61 30c6,-20 26,-43 33,-62l27 -65c60,-114 44,-137 134,-260l41 -57c15,-19 34,-46 62,-45 53,117 21,220 57,241 76,46 176,32 257,8 53,-17 48,-16 51,-37l32 -183c4,-29 3,-36 36,-33l85 183c20,42 48,92 81,122 12,11 31,16 48,21 66,18 175,8 241,-6 38,-8 75,-15 111,-26 23,-8 28,-3 48,-10 20,-7 32,-15 45,-24 8,-22 11,-50 11,-77 -25,-3 -45,-8 -77,-3 -26,4 -227,2 -259,1 -76,-2 -78,-18 -101,-81 -57,-159 -107,-357 -271,-437 -30,-15 -62,-28 -96,-36 -22,-4 -21,-4 -32,-13 9,-8 1,-4 14,-6 10,-2 62,15 72,19l-37 -116 -29 10z"/>
   <path class="fil5" d="M3759 5160l59 32c15,0 61,20 82,26 27,8 55,15 84,20 60,12 125,23 185,26 24,-1 51,-11 79,-13 50,-4 41,1 81,-16l27 77c33,13 125,5 164,3 28,-2 56,-4 85,-6 54,-3 39,-4 70,11 38,18 172,55 212,27 21,-15 9,-37 -2,-54l-3 -6c64,-6 154,-30 211,-50 76,-28 103,-49 156,-101 21,-30 46,-57 55,-105 5,-24 3,-49 -8,-66 -11,-16 -25,-30 -44,-34 -72,-24 -164,-10 -235,7 -37,9 -68,18 -102,30 -27,10 -71,30 -96,34 -11,9 -50,24 -66,31 -25,9 -64,5 -92,5 -48,0 -368,3 -387,-3 -21,-7 -46,-21 -68,-30 -22,-10 -43,-19 -65,-28 -43,-21 -97,-33 -138,-53 -17,-9 -44,-28 -56,-38 -18,-13 -27,-30 -31,-62 -48,5 -112,18 -157,31 -51,14 -81,28 -111,72 -28,44 -1,104 21,140 34,56 81,81 90,93z"/>
   <path class="fil6" d="M1298 5179l51 15c15,-4 1747,0 1853,0 78,0 584,5 616,-2l-59 -32c-169,-7 -316,-6 -468,-106 -188,-125 -230,-311 -249,-328 -16,84 -97,220 -157,280 -77,76 -182,126 -298,144 -98,15 -188,3 -285,9 -167,9 -363,-15 -481,-97 -66,-46 -70,-52 -115,-104 -12,-13 -21,-24 -31,-39 -146,-206 -176,-442 -145,-702 15,-126 47,-223 107,-326 16,-28 56,-75 59,-82 -74,-1 -114,-16 -180,-28 -9,182 -58,536 -92,716 -21,114 -38,231 -61,345l-65 337z"/>
   <path class="fil7" d="M1197 2218l16 9c0,-44 -10,-96 -11,-143l1 -130c1,-4 0,-1 2,-6 2,-6 1,-4 3,-7 56,35 134,69 215,75l-10 -57 275 0c54,-29 166,-110 183,-147 -21,-18 -128,-57 -163,-67 -66,-18 -138,-30 -211,-23 -90,8 -184,52 -239,113 -10,10 -40,49 -48,65 -6,-63 47,-232 70,-286 22,-53 26,-43 89,-90 102,-77 174,-208 194,-348 12,-82 6,-248 -27,-320 -39,15 -155,137 -184,175 -236,311 -61,512 -69,540 -4,12 -21,46 -27,62 -20,52 -53,163 -57,212 -24,-131 -63,-199 -155,-283 -32,-29 -85,-64 -133,-85 -37,-16 -122,-50 -166,-50 16,145 46,261 117,361 59,84 169,165 327,157 -2,46 -4,91 -2,139 1,45 9,91 10,134z"/>
   <path class="fil8" d="M2312 4786c22,1 56,-30 66,-41 53,-61 75,-131 93,-207 1,-5 2,-10 4,-12 6,-10 -5,1 7,-7 51,0 103,0 154,0 70,0 73,4 133,24 77,26 160,50 235,79 23,4 6,3 12,-5 -57,-298 14,-507 14,-520 0,-18 6,-7 -7,-16 -55,16 -115,29 -170,43 -40,9 -138,38 -172,39 -13,8 -189,4 -219,3 -8,-12 -16,-42 -23,-59 -18,-49 -70,-115 -117,-126 -140,88 -160,228 -160,398 1,175 22,348 150,407z"/>
   <path class="fil3" d="M6535 2416c10,108 23,287 8,393 -15,-29 -29,-57 -46,-83 -104,-149 -270,-208 -455,-201 -81,3 -222,31 -232,30 -9,8 -19,7 -31,14l22 39c13,13 33,44 47,61 9,12 16,19 24,30 10,13 19,16 27,29 13,7 26,22 36,37 13,7 67,54 119,84 96,56 205,83 321,72 93,-9 105,-25 164,-37 -3,81 -52,441 -79,496 -49,-144 -92,-228 -241,-306 -125,-66 -304,-86 -461,-72 4,17 24,73 34,82l2 6 107 0 221 0 -1 336 2 1c108,41 193,50 316,33 -3,31 -48,171 -62,190l0 50c14,-18 34,-86 43,-113 10,-30 25,-94 39,-118l66 25c-14,-91 4,-122 21,-201 -4,3 -3,2 -7,7l-32 47c-11,18 -19,41 -32,57 5,-37 19,-86 27,-125 25,-123 45,-266 55,-390 34,5 72,21 109,14 8,-20 24,-160 31,-194 5,-32 11,-64 19,-94 3,-14 23,-79 22,-83 -46,22 -116,128 -142,189l-33 80c-2,-65 4,-134 2,-201 -2,-64 -7,-126 -12,-189l-18 5z"/>
   <path class="fil9" d="M1088 2203c-11,6 -25,10 -38,17l-101 63c-103,65 -90,45 -170,47 -91,10 -75,92 -174,116 -75,18 -174,-22 -248,-33 -87,-13 -154,5 -209,75 -40,50 -81,133 -71,221 13,110 228,260 360,165 31,-23 48,-41 72,-72 21,-27 41,-63 62,-87 72,-85 108,-39 223,-36 -64,69 -122,174 -172,279 -53,112 -65,258 -58,394 -32,14 -99,31 -121,48l59 97c11,-12 21,-36 31,-51 13,-19 26,-32 36,-50l6 -162c9,-168 36,-245 118,-388 20,-36 44,-76 66,-106 14,-19 22,-30 40,-46 30,-29 6,-14 57,-25 61,-14 123,-49 160,-94 22,-26 28,-13 53,-29 -5,-4 -2,-4 -16,-4 0,0 -9,1 -10,2l19 -46c-5,-43 -9,-57 -7,-106 3,-49 5,-65 62,-56 143,24 103,50 92,123l5 -5c24,-45 33,-63 43,-120 2,-25 -1,-45 -11,-64 -11,-22 -26,-30 -33,-43l-16 -9c-41,-23 -61,-19 -109,-15z"/>
   <path class="fil10" d="M6898 2363c-16,2 -42,18 -51,30 -16,13 -18,13 -35,29 -16,16 -17,19 -29,34 -17,21 -32,46 -45,76 1,4 -19,69 -22,83 -8,30 -14,62 -19,94 -7,34 -23,174 -31,194 0,35 -26,159 -15,177 10,-4 13,2 24,10 9,7 18,14 27,19 63,39 148,54 214,19l3 -44 15 -8 -15 2c3,-42 19,-193 53,-219 8,-7 55,-21 68,-21l67 80c6,11 15,21 20,32l8 8c2,3 3,4 5,7 38,54 92,127 145,163 12,8 20,9 30,19 57,1 -15,-11 88,-11 91,0 211,3 295,0l119 -21c7,-1 15,-1 21,-2 18,-3 16,-3 19,-8l0 -73 -148 -15 -55 -2c-89,-2 -187,-18 -258,-53 -36,-17 -69,-37 -92,-60 -17,-18 -49,-63 -58,-96l-19 -40 -81 -203c-11,-10 -16,-27 -23,-42 -7,-14 -16,-29 -24,-42 -19,-28 -41,-53 -64,-70 -28,1 -54,-11 -73,-23 -12,-8 -13,-13 -27,-19 -15,-6 -22,-6 -37,-4z"/>
   <path class="fil11" d="M5136 1140c-8,10 -13,20 -20,31 -9,11 -13,15 -21,24l21 558c1,34 -13,46 -29,68 -11,15 -28,42 -39,52 -11,-22 -24,-50 -33,-72 -10,-24 -1,-70 1,-98l38 -484c3,-39 -10,-50 -14,-87 -13,6 -2,3 -16,4 -8,-28 -20,-77 -11,-107 -19,20 -21,9 -41,29 -14,14 -22,21 -36,35 -76,78 -92,217 -91,325 1,122 1,431 20,537l224 2 6 -1c0,-19 11,-16 45,-35 55,-32 98,-66 138,-112 53,-59 93,-141 86,-251 -3,-48 -17,-91 -34,-131 -44,-106 -84,-90 -13,-243 21,-46 39,-69 65,-101 -11,-14 -97,-52 -117,-61 -17,28 -36,46 -59,68 -22,21 -38,44 -62,66l-8 -16z"/>
   <polygon class="fil12" points="6155,5134 6376,5132 6377,3700 6377,3650 6376,3632 6155,3632 "/>
   <path class="fil12" d="M3237 3458l210 -1058c10,-55 4,-156 4,-218 0,-74 0,-149 0,-223l-136 0 -298 1499 220 0z"/>
   <path class="fil2" d="M6486 2065l-15 12c-36,21 -74,51 -126,55 -43,16 -120,-19 -167,-18 -80,0 -100,173 0,260 36,30 87,41 142,54 84,4 134,6 215,-12l18 -5c94,-43 59,-16 159,-84 23,-16 50,-40 82,-44 35,-5 79,9 104,24l-15 19c-16,17 -32,42 -36,67 9,-12 35,-28 51,-30 18,-55 78,-34 98,-49 6,-5 10,-45 14,-61 6,-23 11,-40 30,-47 23,14 19,52 73,26 33,-16 62,-50 79,-42 35,35 4,95 -10,125 11,-20 40,-51 54,-77 15,-29 17,-85 14,-122 -19,-21 -50,-24 -72,-47 -35,-16 -34,-56 -93,-46 -37,5 -69,28 -104,36 -52,28 -139,32 -195,7 -69,-31 -114,-42 -199,-42 -17,4 -37,8 -54,14 -18,9 -30,19 -47,27z"/>
   <path class="fil13" d="M4141 4977c22,9 43,18 65,28 22,9 47,23 68,30 19,6 339,3 387,3 28,0 67,4 92,-5 16,-7 55,-22 66,-31l5 -11 106 -311 -65 0 -144 -1 -474 1 -143 0 -66 1 103 296z"/>
   <path class="fil12" d="M5369 1582c0,-50 -15,-104 -30,-144 -48,-121 -93,-100 -20,-250 16,-32 42,-90 71,-103 39,18 113,116 141,165 110,197 72,440 -81,594 -38,38 -83,74 -137,105 -34,19 -133,68 -178,67 -11,-14 -33,-41 -35,-68 31,-25 109,-51 179,-134 52,-62 90,-127 90,-232zm-104 -560c20,9 106,47 117,61 -26,32 -44,55 -65,101 -71,153 -31,137 13,243 17,40 31,83 34,131 7,110 -33,192 -86,251 -40,46 -83,80 -138,112 -34,19 -45,16 -45,35 4,8 31,57 32,61 29,4 31,1 62,-9 19,-7 36,-15 56,-20l1 1102 219 -1 -1 -1133 -53 3c10,-100 6,-77 56,-128 94,-98 149,-261 126,-409 -21,-132 -107,-273 -198,-344 -19,-15 -94,-51 -122,-63 0,1 -6,5 -8,7z"/>
   <path class="fil13" d="M5792 3084c-10,-9 -30,-65 -34,-82 157,-14 336,6 461,72 149,78 192,162 241,306 27,-55 76,-415 79,-496 -59,12 -71,28 -164,37 -116,11 -225,-16 -321,-72 -52,-30 -106,-77 -119,-84l2 16 -465 0 0 120 534 1c7,7 32,41 37,51l-571 0 0 131 320 0z"/>
   <path class="fil8" d="M706 4788c11,9 205,6 233,6 81,0 161,0 242,0l2 -69c9,-56 -1,-182 -2,-245 -2,-114 -9,-645 -51,-687 -32,10 -49,85 -59,121 -37,137 -67,290 -109,422 -14,44 -29,90 -49,130 -34,68 -203,310 -207,322z"/>
   <path class="fil8" d="M3808 4788c21,1 56,-26 68,-39 9,-9 19,-17 28,-27 8,-10 15,-22 23,-33 15,-104 38,-199 57,-299 -14,-94 13,-225 -90,-348 -13,-16 -59,-55 -89,-60 -42,34 -92,41 -133,153 -48,129 -51,374 0,503 23,58 73,130 136,150z"/>
   <path class="fil13" d="M5810 2555c10,1 151,-27 232,-30 185,-7 351,52 455,201 17,26 31,54 46,83 15,-106 2,-285 -8,-393 -81,18 -131,16 -215,12 -25,16 -136,17 -170,13 -56,-5 -103,-17 -152,-35 -135,-49 -217,-132 -239,-140 -25,-5 -243,-2 -287,-2 0,146 -18,120 47,120 93,0 202,-2 292,1l12 51 -351 0 0 121c112,0 227,0 338,-2z"/>
   <path class="fil11" d="M5369 1582c0,105 -38,170 -90,232 -70,83 -148,109 -179,134 2,27 24,54 35,68 45,1 144,-48 178,-67 54,-31 99,-67 137,-105 153,-154 191,-397 81,-594 -28,-49 -102,-147 -141,-165 -29,13 -55,71 -71,103 -73,150 -28,129 20,250 15,40 30,94 30,144z"/>
   <path class="fil12" d="M2312 4786c-128,-59 -149,-232 -150,-407 0,-170 20,-310 160,-398 -27,-31 -129,-29 -172,-18 -61,16 -97,49 -125,82 -67,80 -82,204 -82,330 0,170 12,383 195,428 43,11 117,10 159,-6 6,-3 3,-2 8,-5 7,-4 3,0 7,-6z"/>
   <path class="fil12" d="M3808 4788c-63,-20 -113,-92 -136,-150 -51,-129 -48,-374 0,-503 41,-112 91,-119 133,-153 -26,-27 -134,-25 -174,-16 -63,16 -98,46 -129,81 -68,77 -86,211 -86,336 -1,217 56,444 308,428 14,-1 30,-4 44,-6l30 -9c10,-6 3,0 10,-8z"/>
   <path class="fil12" d="M2348 3458l124 -495c5,-31 -90,-379 -108,-442l-235 940 219 -3z"/>
   <path class="fil12" d="M5498 4064l-98 -432 -221 0 212 906c11,-23 110,-457 107,-474z"/>
   <path class="fil12" d="M5768 5128l40 -175c7,-37 2,-405 2,-477 0,-108 5,-387 -1,-475l-262 1129c31,4 205,6 221,-2z"/>
   <path class="fil12" d="M2302 5159c97,-6 187,6 285,-9 116,-18 221,-68 298,-144 60,-60 141,-196 157,-280 2,-14 -8,-36 -13,-54 -3,-10 -4,-18 -7,-28 -4,-16 -6,-14 -18,-22 -75,-29 -158,-53 -235,-79 -60,-20 -63,-24 -133,-24 -51,0 -103,0 -154,0l361 122c-5,54 -43,155 -65,200 -74,153 -193,261 -363,300 -22,5 -103,14 -113,18z"/>
   <path class="fil9" d="M4586 3829c-32,40 -65,-22 -155,20 -14,7 -21,15 -34,6 -31,-23 -14,-100 -5,-123 23,-52 101,-23 156,-43 26,-10 30,-15 37,48 3,23 15,75 1,92zm-277 -130c5,34 15,60 21,94 4,17 11,30 12,43 4,40 -8,85 18,153 17,40 30,38 75,28 37,-11 35,5 61,12 4,1 71,6 77,6 -7,-5 -2,7 -6,-11l13 -11c53,-34 23,-35 19,-76 -1,-17 1,-35 4,-52 3,-15 6,-34 14,-45 35,-50 30,-45 58,-117 18,-45 23,-48 5,-91 -14,-10 -34,-31 -39,-53 70,-44 17,-77 -21,-84 -37,-7 -97,22 -143,26 -38,4 -45,-7 -83,6 -71,23 -93,97 -85,172z"/>
   <path class="fil12" d="M2085 2268l-52 -309 -220 0c9,84 54,314 71,414l72 413c1,1 1,2 2,3 11,-51 127,-490 127,-521z"/>
   <path class="fil12" d="M2861 2269l-76 -310 -220 -1 208 831 47 -259c7,-41 45,-235 41,-261z"/>
   <path class="fil7" d="M1514 3605c8,58 5,118 2,176 66,12 106,27 180,28 6,-4 42,-43 70,-66 25,-19 53,-38 83,-54 51,-27 89,-42 145,-57 10,-3 21,-4 29,-6 19,-5 11,-2 20,-13 10,8 18,7 30,2l-18 -16c44,-27 140,-87 163,-138l-241 0c4,38 17,62 27,95 -20,-7 -21,-9 -34,-20 -17,-14 -75,-59 -84,-74l-3 -1 -19 0c13,21 56,49 70,67 -135,-26 -198,-37 -337,27 -19,8 -73,38 -83,50z"/>
   <path class="fil14" d="M5465 3089l329 1 -2 -6 -320 0 0 -131 571 0c-5,-10 -30,-44 -37,-51l-534 -1 0 -120 465 0 -2 -16c-10,-15 -23,-30 -36,-37l-427 1 0 -121 329 0 -22 -39c12,-7 22,-6 31,-14 -111,2 -226,2 -338,2l0 -121 351 0 -12 -51c-90,-3 -199,-1 -292,-1 -65,0 -47,26 -47,-120 44,0 262,-3 287,2 -9,-19 -38,-33 -51,-55l-236 1 0 -120 244 0c-3,-15 -15,-41 -22,-53l-222 1c0,-30 6,-70 -8,-84l1 1133z"/>
   <path class="fil12" d="M2681 4163c34,-1 132,-30 172,-39 55,-14 115,-27 170,-43 15,-8 20,-13 18,-37 -9,-46 -52,-131 -74,-168 -62,-104 -143,-178 -259,-224 -46,-18 -146,-45 -198,-40 -19,1 -132,-7 -194,-3 35,21 296,6 444,291 21,40 62,126 70,175l-355 87 206 1z"/>
   <path class="fil15" d="M7085 2023c59,-10 58,30 93,46 -32,-66 -58,-139 4,-185 86,-65 218,158 354,-29 38,-53 52,-116 82,-175 102,-200 251,-91 232,52 -12,91 -71,190 -116,267 -7,12 -15,27 -22,40 -11,19 -19,23 -14,48 78,31 160,-9 238,4 77,13 102,87 72,165 -40,104 -180,190 -260,260l-210 176c-27,26 2,64 27,77 56,29 150,-4 177,82 12,38 -2,73 -19,100 -22,36 -52,48 -69,64l55 2c10,-13 17,-13 36,-36 40,-49 57,-102 27,-165 -46,-97 -143,-36 -197,-90 2,-35 47,-54 92,-93 89,-78 171,-135 257,-207 73,-61 180,-191 114,-309 -60,-108 -171,-47 -291,-57 1,-12 74,-139 88,-167 28,-56 58,-129 56,-202 -4,-143 -175,-232 -280,-73 -53,80 -92,317 -238,271 -57,-18 -122,-79 -194,-51 -60,24 -86,100 -66,181l-28 4z"/>
   <path class="fil3" d="M6587 2024c85,0 130,11 199,42 56,25 143,21 195,-7 22,-73 32,-67 56,-172 13,-63 23,-139 25,-205 -127,19 -317,125 -393,219 -23,28 -69,80 -82,123z"/>
   <path class="fil3" d="M5708 2211c13,22 42,36 51,55 22,8 104,91 239,140 49,18 96,30 152,35 34,4 145,3 170,-13 -55,-13 -106,-24 -142,-54 -100,-87 -80,-260 0,-260 47,-1 124,34 167,18 -26,-23 -113,-42 -155,-47 -63,-6 -127,-1 -188,12 -110,23 -206,66 -294,114z"/>
   <path class="fil14" d="M706 4788l-12 13c-3,3 -7,10 -10,14 -8,11 -13,18 -18,30 38,-4 262,-1 320,-1 232,0 195,-14 195,42 0,26 0,53 0,79l-602 -1c-13,13 -27,35 -40,53l642 0c0,42 6,57 6,121 -79,0 -684,3 -708,-4 5,6 6,8 13,16 6,6 10,9 16,15 11,10 16,21 32,28 10,-11 135,-4 157,-4 77,2 471,-8 486,5 5,-7 4,-2 5,-16 1,-49 3,-442 -5,-453l-2 69c-81,0 -161,0 -242,0 -28,0 -222,3 -233,-6z"/>
   <path class="fil11" d="M4832 1492c1,-110 -2,-162 20,-270 -84,62 -188,86 -317,69 -57,-8 -108,-19 -163,-33 -21,-6 -58,-21 -77,-10 -18,9 -34,38 -28,65 30,30 195,108 251,130 129,52 184,59 314,49z"/>
   <polygon class="fil6" points="7064,4191 7403,4191 7462,3955 7064,3954 "/>
   <path class="fil16" d="M4993 601c1,81 -28,192 27,298 17,32 23,43 68,45 4,41 -10,91 10,124 32,-10 99,-64 107,-89 2,-9 -8,-63 -6,-88 3,-24 25,-32 37,-65 3,-18 20,-27 12,-58 -6,-24 -17,-24 -36,-37 -1,-47 -16,-88 -21,-133 -18,2 -34,7 -51,7 -17,1 -30,-8 -41,-7 -45,4 -44,19 -87,-8 -6,3 -14,8 -19,11z"/>
   <path class="fil13" d="M461 5120c7,12 7,11 18,14 24,7 629,4 708,4 0,-64 -6,-79 -6,-121l-642 0c-13,17 -26,34 -40,53 -13,18 -27,33 -38,50z"/>
   <polygon class="fil12" points="6121,3426 6122,3090 5901,3090 5901,3458 6116,3458 6119,3458 "/>
   <path class="fil12" d="M7789 5131l-1 -338 -216 0c-10,39 -3,279 -3,339l220 -1z"/>
   <path class="fil12" d="M4815 3119l-214 0c-6,27 -3,289 -3,339l219 0c0,-48 3,-312 -2,-339z"/>
   <path class="fil12" d="M4968 4323c1,22 17,71 22,97 23,101 45,208 56,310 13,111 17,130 -57,180 -39,27 -115,63 -165,81l-5 11c25,-4 69,-24 96,-34 34,-12 65,-21 102,-30 71,-17 163,-31 235,-7 -10,-15 -33,-22 -50,-29 -30,-12 -24,-7 -32,-42l-200 -859 -2 322z"/>
   <path class="fil17" d="M4993 601c5,-3 13,-8 19,-11 43,27 42,12 87,8 11,-1 24,8 41,7 17,0 33,-5 51,-7 5,45 20,86 21,133 19,13 30,13 36,37 8,31 -9,40 -12,58 89,-57 42,-83 89,-132 11,-11 24,-27 27,-49 13,-78 -80,-138 -135,-162 -33,-14 -79,-28 -119,-29 -49,-2 -81,16 -122,27 -45,12 -89,5 -75,69 10,47 40,61 92,51z"/>
   <polygon class="fil12" points="4578,2280 4799,2280 4799,1959 4578,1958 "/>
   <path class="fil13" d="M6553 2411c5,63 10,125 12,189 2,67 -4,136 -2,201l33 -80c26,-61 96,-167 142,-189 13,-30 28,-55 45,-76 12,-15 13,-18 29,-34 17,-16 19,-16 35,-29 4,-25 20,-50 36,-67l15 -19c-25,-15 -69,-29 -104,-24 -32,4 -59,28 -82,44 -100,68 -65,41 -159,84z"/>
   <path class="fil13" d="M579 4964l602 1c0,-26 0,-53 0,-79 0,-56 37,-42 -195,-42 -58,0 -282,-3 -320,1 -11,6 -35,44 -45,59 -11,15 -34,44 -42,60z"/>
   <polygon class="fil12" points="4748,2824 4748,2518 4528,2518 4527,2824 "/>
   <polygon class="fil12" points="7064,4793 7065,4500 6844,4499 6844,4793 "/>
   <polygon class="fil12" points="3874,3118 4092,3120 4091,2825 3874,2825 "/>
   <path class="fil7" d="M779 2330c80,-2 67,18 170,-47l101 -63c13,-7 27,-11 38,-17l-18 -16c-51,-34 -114,-58 -174,-70 -81,-17 -172,-16 -253,-2 13,38 42,83 62,114 23,37 64,84 74,101z"/>
   <path class="fil12" d="M7450 4359c28,67 2,42 97,63 36,8 75,48 87,76l83 0 -1 -307 -153 -1 -30 42c-9,14 -17,26 -26,40 -13,18 -54,52 -57,87z"/>
   <path class="fil7" d="M1257 2334c-10,57 -19,75 -43,120l29 -10 37 116c9,9 8,6 19,8l-42 -133c113,13 141,13 248,-12l-59 -295c-55,19 -126,91 -155,141 -12,21 -26,57 -34,65z"/>
   <path class="fil8" d="M1458 3391c20,62 53,139 56,214 10,-12 64,-42 83,-50 139,-64 202,-53 337,-27 -14,-18 -57,-46 -70,-67l19 0 -168 0 -36 -177 -25 -2c-11,21 -57,52 -85,69 -33,19 -70,31 -111,40z"/>
   <path class="fil7" d="M5040 1132c4,37 17,48 14,87l-38 484c-2,28 -11,74 -1,98 9,22 22,50 33,72 11,-10 28,-37 39,-52 16,-22 30,-34 29,-68l-21 -558c8,-9 12,-13 21,-24 7,-11 12,-21 20,-31 -10,-14 -33,-51 -38,-67l-14 15c-5,6 -10,10 -16,16 -10,10 -22,20 -28,28z"/>
   <path class="fil13" d="M1213 2227c7,13 22,21 33,43 10,19 13,39 11,64 8,-8 22,-44 34,-65 29,-50 100,-122 155,-141l-23 -112c-81,-6 -159,-40 -215,-75 -2,3 -1,1 -3,7 -2,5 -1,2 -2,6l-1 130c1,47 11,99 11,143z"/>
   <polygon class="fil12" points="7064,4191 7064,3954 6844,3954 6844,4191 "/>
   <polygon class="fil12" points="3873,2517 3888,2518 4091,2518 4092,2448 4092,2424 4092,2393 4091,2280 3874,2280 "/>
   <path class="fil12" d="M4356 4044l78 -14 1 -13c-45,10 -58,12 -75,-28 -26,-68 -14,-113 -18,-153 -1,-13 -8,-26 -12,-43 -6,-34 -16,-60 -21,-94 -17,-6 -36,-18 -54,-26 -201,-88 -292,-54 -486,-67 46,18 330,7 502,265 29,44 72,115 85,173z"/>
   <path class="fil13" d="M5899 2728c-8,-13 -17,-16 -27,-29 -8,-11 -15,-18 -24,-30 -14,-17 -34,-48 -47,-61l-329 0 0 121 427 -1z"/>
   <path class="fil10" d="M1458 3391c41,-9 78,-21 111,-40 28,-17 74,-48 85,-69 -72,-7 -111,-6 -153,-50 -18,-19 -28,-37 -41,-60 -9,-15 -27,-56 -37,-64l-109 -6 -13 76c24,11 74,70 92,96 27,40 41,72 65,117z"/>
   <path class="fil13" d="M6546 3293c15,-40 30,-73 48,-110 9,-18 16,-32 27,-51 9,-15 23,-36 30,-52 -11,-18 15,-142 15,-177 -37,7 -75,-9 -109,-14 -10,124 -30,267 -55,390 -8,39 -22,88 -27,125 13,-16 21,-39 32,-57l32 -47c4,-5 3,-4 7,-7z"/>
   <path class="fil18" d="M1299 2568c22,4 56,24 71,33 21,14 40,32 55,50 21,-52 67,-115 99,-136l-19 -92c-107,25 -135,25 -248,12l42 133z"/>
   <path class="fil19" d="M6898 2363c15,-2 22,-2 37,4 14,6 15,11 27,19 19,12 45,24 73,23 6,-11 7,-15 18,-23l10 -20c75,13 83,-17 119,-51 14,-30 45,-90 10,-125 -17,-8 -46,26 -79,42 -54,26 -50,-12 -73,-26 -19,7 -24,24 -30,47 -4,16 -8,56 -14,61 -20,15 -80,-6 -98,49z"/>
   <path class="fil16" d="M4586 3829c14,-17 2,-69 -1,-92 -7,-63 -11,-58 -37,-48 -55,20 -133,-9 -156,43 -9,23 -26,100 5,123 13,9 20,1 34,-6 90,-42 123,20 155,-20z"/>
   <path class="fil16" d="M1062 2498c11,5 14,9 25,16 17,13 7,3 16,23 6,16 23,36 45,22 19,-12 13,-33 25,-53 6,-8 12,-11 19,-19 7,-8 13,-19 17,-28 11,-73 51,-99 -92,-123 -57,-9 -59,7 -62,56 -2,49 2,63 7,106z"/>
   <path class="fil9" d="M7634 4498c-12,-28 -51,-68 -87,-76 -95,-21 -69,4 -97,-63 -6,-9 -2,-7 -16,-8 -3,-1 -18,0 -23,0 -17,0 -30,-1 -47,2 -11,43 -16,95 -15,142l285 3z"/>
   <path class="fil3" d="M6934 3076l-15 8 -3 44c19,-5 5,23 46,67 73,-18 132,-34 213,-43 9,-21 25,-40 32,-64 -74,-13 -130,-19 -209,-17l-64 5z"/>
   <path class="fil15" d="M7227 2766l19 40c13,-20 30,-42 43,-62 44,-67 81,-137 110,-215 28,-77 80,-291 52,-374 -55,-13 -24,39 -39,161 -19,155 -83,308 -171,434 -2,3 -3,4 -5,7l-6 6c-1,1 -2,2 -3,3z"/>
   <path class="fil10" d="M1425 2651l60 86c15,25 33,74 51,95 20,-1 30,-8 48,-12l-60 -305c-32,21 -78,84 -99,136z"/>
   <path class="fil2" d="M540 5193c-16,-7 -21,-18 -32,-28 -6,-6 -10,-9 -16,-15 -7,-8 -8,-10 -13,-16 -11,-3 -11,-2 -18,-14 -30,-11 -77,-34 -109,-40l-48 87c14,14 110,45 138,56 39,16 105,45 143,54 -12,-44 -40,-66 -45,-84z"/>
   <path class="fil13" d="M6934 3076c9,-11 31,-28 44,-39 15,-13 28,-26 44,-38 31,-26 49,-55 85,-81l-67 -80c-13,0 -60,14 -68,21 -34,26 -50,177 -53,219l15 -2z"/>
   <path class="fil2" d="M1183 5194c4,26 -6,59 -9,87l302 -2c-69,-72 -101,-63 -127,-85l-51 -15 -110 -1c-1,14 0,9 -5,16z"/>
   <path class="fil2" d="M530 3541c77,114 40,122 132,65 18,-11 51,-29 62,-42 0,-28 -48,-77 -57,-105 -62,6 -120,39 -137,82z"/>
   <path class="fil13" d="M6998 3071c79,-2 135,4 209,17 -7,24 -23,43 -32,64l140 -5c-10,-10 -18,-11 -30,-19 -53,-36 -107,-109 -145,-163 -2,-3 -3,-4 -5,-7l-8 -8c-22,18 -43,42 -65,62 -13,11 -19,20 -32,30 -13,10 -20,18 -32,29z"/>
   <path class="fil20" d="M4169 5264c-25,21 -61,25 -54,75 19,39 147,6 188,-7 19,-5 38,-16 53,-20l-27 -77c-40,17 -31,12 -81,16 -28,2 -55,12 -79,13z"/>
   <path class="fil3" d="M7053 2386c-11,8 -12,12 -18,23 23,17 45,42 64,70 8,13 17,28 24,42 7,15 12,32 23,42 14,-18 69,-163 71,-191 -44,-3 -123,4 -164,14z"/>
   <path class="fil21" d="M7284 3631l265 2c18,-2 33,-46 65,-85 11,-14 62,-70 76,-76 -22,6 -67,33 -90,46 -56,32 -256,100 -316,113z"/>
   <path class="fil16" d="M4254 1308c4,-50 13,-40 30,-69 -24,-14 -49,-56 -78,-54 -7,20 -1,12 0,31l-1 12c-40,11 -85,-25 -128,-12 -4,29 41,62 61,73 44,27 77,8 116,19z"/>
   <path class="fil0" d="M4104 4680l143 0c-8,-36 -37,-139 -54,-160 -28,3 -41,42 -54,70 -12,26 -27,62 -35,90z"/>
   <path class="fil0" d="M4721 4679l144 1c-10,-35 -37,-97 -56,-130 -9,-16 -12,-28 -31,-30 -18,15 -50,125 -57,159z"/>
   <path class="fil16" d="M7857 3032l0 73c79,-40 82,45 154,13 3,-27 -34,-72 -46,-81 -26,-21 -74,-9 -108,-5z"/>
   <path class="fil16" d="M502 3497c1,24 -9,71 28,44 17,-43 75,-76 137,-82 13,-8 8,0 14,-12 -13,-6 -24,-9 -33,-16l-18 -5 -61 -30c-10,18 -23,31 -36,50 -10,15 -20,39 -31,51z"/>
   <path class="fil16" d="M2030 3116c0,27 -3,55 -11,77l-2 16 -1 26c13,-6 49,-47 70,-62 55,-38 115,-16 96,-48 -19,-34 -124,-14 -152,-9z"/>
   <path class="fil6" d="M1314 3102l109 6c-11,-27 -23,-54 -36,-83 -5,-12 -12,-28 -18,-40 -8,-16 -14,-32 -24,-38 -18,35 -17,111 -31,155z"/>
   <path class="fil15" d="M6934 3076l64 -5c12,-11 19,-19 32,-29 13,-10 19,-19 32,-30 22,-20 43,-44 65,-62 -5,-11 -14,-21 -20,-32 -36,26 -54,55 -85,81 -16,12 -29,25 -44,38 -13,11 -35,28 -44,39z"/>
   <path class="fil16" d="M5127 2017c-1,-4 -28,-53 -32,-61l-6 1c-30,20 -76,35 -77,58 -1,27 -3,-20 1,6l2 7c34,11 82,3 112,-11z"/>
   <path class="fil4" d="M1977 3461l-91 1c9,15 67,60 84,74 13,11 14,13 34,20 -10,-33 -23,-57 -27,-95z"/>
  </g>
 </g>
</svg>
